<?xml version="1.0" encoding="UTF-8"?>
<!DOCTYPE svg PUBLIC "-//W3C//DTD SVG 1.1//EN" "http://www.w3.org/Graphics/SVG/1.1/DTD/svg11.dtd">
<!-- Creator: CorelDRAW 2021 (64-Bit) -->
<svg xmlns="http://www.w3.org/2000/svg" xml:space="preserve" width="2.3472in" height="1.89814in" version="1.1" style="shape-rendering:geometricPrecision; text-rendering:geometricPrecision; image-rendering:optimizeQuality; fill-rule:evenodd; clip-rule:evenodd"
viewBox="0 0 899.16 727.14"
 xmlns:xlink="http://www.w3.org/1999/xlink"
 xmlns:xodm="http://www.corel.com/coreldraw/odm/2003">
 <defs>
  <style type="text/css">
   <![CDATA[
    .fil6 {fill:#102048}
    .fil19 {fill:#1D1F39}
    .fil8 {fill:#1F3C88}
    .fil13 {fill:#3C1C16}
    .fil11 {fill:#5874BE}
    .fil15 {fill:#673025}
    .fil14 {fill:#687BB9}
    .fil9 {fill:#6F3428}
    .fil10 {fill:#708CD5}
    .fil20 {fill:#8CBFBE}
    .fil18 {fill:#B85643}
    .fil21 {fill:#C6EAE9}
    .fil7 {fill:#CFD2DA}
    .fil16 {fill:#DD9C74}
    .fil5 {fill:#E28B6D}
    .fil1 {fill:#E5ECFF}
    .fil0 {fill:#EE6F57}
    .fil22 {fill:#F4FBFB}
    .fil12 {fill:#F9B384}
    .fil17 {fill:#FB9D7E}
    .fil2 {fill:#FBC343}
    .fil23 {fill:#FEF3D9}
    .fil3 {fill:#FFEEC7}
    .fil4 {fill:white}
   ]]>
  </style>
 </defs>
 <g id="Layer_x0020_1">
  <metadata id="CorelCorpID_0Corel-Layer"/>
  <g id="_2380320363440">
   <path class="fil0" d="M865.04 628.68c-0.54,0 -1.07,-0.04 -1.58,-0.1l0.98 -16.99c0.2,-0.01 0.4,-0.03 0.6,-0.03 6.22,0 11.27,3.84 11.27,8.56 0,4.72 -5.05,8.56 -11.27,8.56l0 0zm0 -23.16c-0.08,0 -0.17,0 -0.25,0.01l0.74 -12.86 -65.41 0 3.15 54.55c0.59,10.22 9.05,18.21 19.29,18.21l20.51 0c10.24,0 18.71,-7.99 19.3,-18.21l0.73 -12.59c0.64,0.06 1.28,0.1 1.94,0.1 9.55,0 17.32,-6.55 17.32,-14.6 0,-8.05 -7.77,-14.6 -17.32,-14.6l0 0z"/>
   <path class="fil1" d="M839.45 587.73c-6.41,-0.83 -12.47,-4.55 -16.59,-9.86 -2.05,-2.66 -3.69,-5.73 -4.61,-9.07 -0.26,-0.82 -0.41,-1.67 -0.6,-2.51 -0.11,-0.85 -0.28,-1.7 -0.32,-2.55 -0.18,-1.71 -0.11,-3.43 0.03,-5.14 0.34,-3.4 1.27,-6.74 2.79,-9.81 0.75,-1.53 1.65,-3 2.69,-4.36 1.02,-1.36 2.24,-2.66 3.4,-3.72 1.15,-1.07 2.26,-1.99 3.21,-2.93 0.49,-0.46 0.93,-0.91 1.32,-1.38 0.4,-0.48 0.74,-0.95 0.98,-1.39 0.55,-0.92 0.89,-2.07 0.92,-3.14 0.04,-1.08 -0.21,-2.07 -0.91,-2.88l1.65 -2.41c0.89,0.45 1.66,1.16 2.25,1.98 0.57,0.84 0.96,1.77 1.19,2.72 0.44,1.9 0.31,3.83 -0.26,5.68 -1.3,3.72 -3.78,6.15 -5.63,8.31 -0.93,1.09 -1.7,2.06 -2.39,3.17 -0.37,0.53 -0.66,1.11 -0.99,1.66 -0.27,0.59 -0.59,1.15 -0.83,1.75 -1.05,2.37 -1.69,4.9 -1.98,7.47 -0.55,5.17 0.57,10.33 3.32,14.87 2.78,4.52 6.97,8.3 12.15,10.69l-0.77 2.81 0 0z"/>
   <path class="fil1" d="M841.41 572.42c2.63,-2.33 4.76,-4.85 6.38,-7.6 1.63,-2.74 2.75,-5.68 3.26,-8.68 0.51,-3 0.43,-6.12 -0.14,-9.25 -0.58,-3.13 -1.68,-6.21 -3.29,-9.36l2.12 -2c3.4,2.17 5.96,5.63 7.46,9.49 1.51,3.87 1.95,8.22 1.17,12.42 -0.77,4.2 -2.71,8.1 -5.45,11.2 -2.75,3.08 -6.3,5.45 -10.2,6.38l-1.31 -2.6 0 0z"/>
   <path class="fil2" d="M325.09 678.41l0.19 -0.99c-41.62,-8.06 -77.09,-24.2 -105.56,-47.7 -28.47,-23.5 -49.96,-54.35 -63.6,-91.89 -10.64,-29.3 -15.89,-62.04 -15.88,-95.33 -0,-51.19 12.39,-103.68 36.5,-146.97 24.11,-43.3 59.9,-77.38 106.72,-91.94 10.69,-3.32 21.93,-4.63 33.53,-4.63 20.54,-0 42.15,4.1 63.58,8.22 21.43,4.11 42.68,8.25 62.55,8.25 0.35,0 0.7,-0 1.04,-0 33.74,-0.25 65.79,-10.1 97.6,-19.84 31.81,-9.75 63.38,-19.39 96.15,-19.38 4.17,0 8.37,0.16 12.59,0.49 45.85,3.61 85.56,26.53 115.99,59.34 30.43,32.8 51.55,75.47 60.16,118.42 3.31,16.51 4.99,33.35 4.99,50.18 0,13.23 -1.04,26.46 -3.12,39.53 -5.15,32.28 -15.64,63.91 -31.55,91.85 -6.81,11.97 -18.16,25.96 -31.14,37.73 -6.49,5.88 -13.39,11.2 -20.33,15.45 -6.93,4.24 -13.91,7.41 -20.54,8.98l0.23 0.98 -0.19 -0.98 -400.11 79.26 0.19 0.99 0.19 -0.99 -0.19 0.99 0.2 0.98 400.13 -79.27 0.02 -0c6.9,-1.65 14.06,-4.9 21.12,-9.23 10.61,-6.49 21.03,-15.39 30.12,-24.95 9.09,-9.57 16.83,-19.78 22.04,-28.94 16.04,-28.18 26.6,-60.03 31.78,-92.53 2.1,-13.17 3.14,-26.51 3.14,-39.84 0,-16.96 -1.68,-33.93 -5.02,-50.57 -8.69,-43.32 -29.96,-86.29 -60.66,-119.39 -30.7,-33.09 -70.87,-56.32 -117.3,-59.97 -4.28,-0.34 -8.53,-0.49 -12.75,-0.49 -33.17,0 -64.93,9.73 -96.74,19.47 -31.81,9.75 -63.68,19.51 -97.02,19.76 -0.34,0 -0.68,0 -1.03,0 -19.59,0 -40.74,-4.1 -62.17,-8.21 -21.43,-4.12 -43.16,-8.25 -63.96,-8.25 -11.74,0 -23.19,1.32 -34.13,4.72 -47.41,14.75 -83.59,49.25 -107.88,92.88 -24.3,43.64 -36.76,96.43 -36.76,147.95 0,33.5 5.27,66.46 16,96.01 13.75,37.85 35.45,69.03 64.21,92.76 28.75,23.73 64.55,40 106.45,48.12l0.19 0.04 0.19 -0.04 -0.2 -0.98 -0 0z"/>
   <path class="fil2" d="M548.67 665.02l0.24 0.96c82.88,-20.47 146.21,-82.25 168.08,-153.04 6.52,-21.1 9.68,-43.79 9.68,-66.92 0,-50.14 -14.87,-102.33 -42.83,-144.76 -27.95,-42.43 -69.04,-75.12 -121.42,-86.09 -12.83,-2.69 -25.98,-3.72 -39.17,-3.72 -13.75,0 -27.54,1.13 -41.05,2.69 -39.02,4.51 -78.91,10.06 -118.25,10.06 -4.18,0 -8.35,-0.06 -12.52,-0.19 -40.56,-1.28 -80.11,-12.87 -121.22,-12.88 -1.58,0 -3.17,0.02 -4.76,0.05 -60.57,1.36 -110.79,26.92 -145.83,65.41 -35.04,38.49 -54.92,89.9 -54.93,143.01 0,17.85 2.25,35.89 6.92,53.7 7.67,29.22 20.68,57.49 38.92,82.04 7.9,10.64 20.46,22.69 34.53,32.63 14.08,9.93 29.67,17.75 43.74,19.8l399.91 58.26 0.19 -0.05 -0.24 -0.96 0.14 -0.97 -399.72 -58.23c-13.57,-1.97 -28.97,-9.64 -42.88,-19.47 -13.91,-9.81 -26.35,-21.77 -34.09,-32.19 -18.07,-24.33 -30.98,-52.37 -38.59,-81.37 -4.63,-17.64 -6.86,-35.51 -6.86,-53.2 0,-52.62 19.71,-103.57 54.41,-141.68 34.71,-38.12 84.38,-63.41 144.41,-64.77 1.57,-0.04 3.14,-0.05 4.71,-0.05 40.74,-0.01 80.27,11.56 121.16,12.88 4.19,0.13 8.38,0.2 12.58,0.2 39.52,-0 79.48,-5.57 118.47,-10.07 13.47,-1.56 27.18,-2.67 40.82,-2.67 13.09,0 26.1,1.03 38.76,3.68 51.8,10.85 92.44,43.16 120.17,85.24 27.73,42.08 42.5,93.93 42.5,143.68 0,22.95 -3.14,45.45 -9.59,66.34 -21.63,70.07 -84.45,131.41 -166.66,151.7l0.24 0.96 0.14 -0.97 -0.14 0.97 0 -0z"/>
   <path class="fil3" d="M755.84 530.61c-22.14,64.07 -48.58,127.34 -140.56,151.77l-397.54 -4.22c-89.58,-42.31 -138.53,-125.85 -146.68,-215.99 -2.7,-29.79 -0.93,-60.3 5.32,-90.27 1.63,-7.89 3.58,-15.75 5.84,-23.54 20.54,-70.8 64,-137.56 128.67,-175.21 41.55,-24.2 94.8,-16.21 138.93,-3.79 39.78,11.2 78.65,26.88 119.72,31.6 19.8,2.27 39.81,1.95 59.8,1.62 13.04,-0.21 26.07,-0.42 39.03,0.09 11.75,0.46 23.42,1.51 34.99,3.68 49.59,9.31 93.54,39.72 123.71,80.37 10.39,13.97 19.14,29.15 25.94,45.1 0.41,0.97 0.82,1.95 1.22,2.93 0.4,0.98 0.8,1.96 1.18,2.95 0.39,0.98 0.77,1.97 1.14,2.96 0.37,0.99 0.74,1.98 1.1,2.97 0.36,0.99 0.71,1.99 1.06,2.99 0.35,1 0.69,2 1.02,3 0.33,1 0.66,2.01 0.98,3.01 0.32,1.01 0.63,2.01 0.94,3.02 0.31,1.01 0.61,2.02 0.9,3.03 0.29,1.01 0.58,2.03 0.86,3.04 0.28,1.02 0.56,2.03 0.82,3.05 0.27,1.02 0.53,2.04 0.78,3.06 0.25,1.02 0.5,2.05 0.74,3.07 0.24,1.03 0.48,2.05 0.7,3.08 0.23,1.03 0.45,2.06 0.67,3.09 0.22,1.03 0.42,2.06 0.63,3.1 0.2,1.03 0.4,2.07 0.59,3.11 0.19,1.04 0.37,2.08 0.55,3.12 0.18,1.04 0.35,2.08 0.51,3.12 0.16,1.04 0.32,2.08 0.48,3.13 0.15,1.04 0.3,2.09 0.44,3.14 0.14,1.05 0.27,2.09 0.4,3.14 0.13,1.05 0.25,2.1 0.36,3.15 0.11,1.05 0.22,2.1 0.32,3.15 0.1,1.05 0.2,2.1 0.29,3.16 0.09,1.05 0.17,2.11 0.25,3.16 0.08,1.05 0.15,2.11 0.21,3.16 0.06,1.05 0.12,2.11 0.18,3.17 0.05,1.06 0.1,2.11 0.14,3.17 0.04,1.06 0.08,2.11 0.11,3.17 0.03,1.06 0.05,2.12 0.07,3.17 0.02,1.06 0.03,2.12 0.03,3.18 0.01,1.06 0,2.12 -0,3.18 -0.01,1.06 -0.02,2.12 -0.04,3.18 -0.02,1.06 -0.04,2.12 -0.07,3.18 -0.03,1.06 -0.07,2.12 -0.11,3.18 -0.04,1.06 -0.09,2.12 -0.14,3.18 -0.05,1.06 -0.11,2.12 -0.18,3.18 -0.06,1.06 -0.14,2.12 -0.21,3.18 -0.08,1.06 -0.16,2.12 -0.25,3.17l0 0c-0.09,1.06 -0.18,2.12 -0.28,3.17l0 0c-0.1,1.06 -0.21,2.11 -0.32,3.17l0 0c-0.11,1.06 -0.23,2.11 -0.35,3.17l0 0c-0.12,1.06 -0.25,2.11 -0.38,3.16l0 0c-0.13,1.05 -0.27,2.11 -0.42,3.16l0 0c-0.14,1.05 -0.3,2.11 -0.45,3.16l0 0c-0.16,1.05 -0.32,2.1 -0.49,3.15l0 0c-0.17,1.05 -0.34,2.1 -0.52,3.15l0 0c-0.18,1.05 -0.36,2.09 -0.55,3.14l0 0c-0.19,1.05 -0.38,2.09 -0.58,3.14l0 0c-0.2,1.04 -0.41,2.09 -0.62,3.13l0 0c-0.21,1.04 -0.43,2.08 -0.65,3.12l0 0c-0.22,1.04 -0.45,2.08 -0.68,3.11l0 0c-0.23,1.04 -0.47,2.07 -0.71,3.11l0 0c-0.24,1.03 -0.49,2.07 -0.74,3.1l0 0c-0.25,1.03 -0.51,2.06 -0.78,3.09l0 0c-0.26,1.03 -0.53,2.06 -0.81,3.08l-0 0c-0.27,1.03 -0.55,2.05 -0.84,3.07l0 0c-0.28,1.02 -0.57,2.04 -0.87,3.06l0 0c-0.3,1.02 -0.6,2.04 -0.9,3.05l0 0c-0.31,1.02 -0.62,2.03 -0.93,3.04l0 0c-0.32,1.01 -0.64,2.02 -0.96,3.03l0 0c-0.33,1.01 -0.66,2.01 -0.99,3.02l0 0c-0.34,1.01 -0.68,2.01 -1.02,3.01l0 0 0 0z"/>
   <path class="fil4" d="M89.23 540.13c3.33,-0.92 6.65,-1.79 9.95,-2.63 129.76,-32.94 266.82,-29.01 399.37,-25.21 86.96,2.5 176.09,5.05 263.74,-2.75 -0.18,0.68 -0.37,1.35 -0.55,2.03 -87.52,7.73 -176.46,5.19 -263.24,2.7 -132.41,-3.79 -269.33,-7.72 -398.83,25.15 -3.22,0.82 -6.46,1.67 -9.7,2.56 -0.25,-0.62 -0.49,-1.23 -0.74,-1.85l0 0zm669.14 -194.5c-42.75,-5.85 -90.59,-7.11 -144.88,-3.98 -86.27,4.98 -172.81,18.87 -257.21,41.29 -18.97,5.04 -38.23,10.61 -56.87,15.99 -66.71,19.28 -135.68,39.22 -206.03,39.22 -0.35,0 -0.7,0 -1.06,0 -7.11,-0.02 -14.98,-0.57 -22.48,-2.19 -0,-0.67 -0,-1.34 0,-2.01 7.47,1.65 15.36,2.21 22.49,2.23 0.35,0 0.7,0 1.05,0 70.07,0 138.9,-19.9 205.48,-39.14 18.64,-5.39 37.92,-10.96 56.91,-16 84.53,-22.46 171.2,-36.36 257.6,-41.36 53.99,-3.12 101.63,-1.9 144.25,3.85 0.25,0.7 0.5,1.4 0.75,2.1l0 0zm-671.33 -12.56c11.1,-7.51 22.41,-13.21 32.34,-17.43 27.54,-11.71 57.47,-18.07 86.41,-24.23 3.44,-0.73 6.87,-1.46 10.3,-2.2 64.66,-13.93 129.29,-31.35 192.09,-51.78 29.8,-9.7 45.1,-22.31 46.76,-38.55l0 -0.04c0.65,0.11 1.3,0.22 1.95,0.33 -1.8,17.05 -17.53,30.18 -48.1,40.13 -62.86,20.45 -127.55,37.89 -192.28,51.84 -3.43,0.74 -6.87,1.47 -10.3,2.2 -28.85,6.14 -58.69,12.48 -86.05,24.11 -10.48,4.45 -22.51,10.57 -34.16,18.73 0.34,-1.04 0.69,-2.08 1.04,-3.11l0 0zm247.09 -167.8c-16.28,4.37 -32.06,10.54 -46.94,18.41 -12.05,6.37 -23.67,13.95 -34.91,21.28 -14.88,9.71 -30.27,19.74 -46.85,27.12 -22.47,10 -47.83,15.57 -75.73,16.67 0.48,-0.68 0.97,-1.36 1.46,-2.04 27.04,-1.23 51.64,-6.73 73.47,-16.44 16.44,-7.32 31.76,-17.31 46.58,-26.97 11.28,-7.36 22.94,-14.96 35.06,-21.38 13.95,-7.38 28.67,-13.27 43.85,-17.6 1.34,0.3 2.68,0.62 4.01,0.94l0 0z"/>
   <path class="fil5" d="M573.25 628.4c26.84,6.88 63.72,13.05 51.97,35.99l-66.87 -0.06 14.9 -35.93z"/>
   <path class="fil6" d="M295.63 682.39l-64.68 0c-22.09,0 -39.99,-17.9 -39.99,-39.99l0 -132.1c0,-22.09 17.9,-39.99 39.99,-39.99l64.68 0c22.09,0 39.99,17.9 39.99,39.99l0 132.1c0,22.09 -17.9,39.99 -39.99,39.99l0 0z"/>
   <path class="fil7" d="M214.86 578.55c-1.25,-9.67 -2.18,-19.39 -2.76,-29.13 -0.54,-10.53 -0.8,-21.1 -0.04,-31.66 0.4,-5.27 1.01,-10.55 2.27,-15.73 0.67,-2.57 1.47,-5.14 2.74,-7.53 0.64,-1.19 1.39,-2.34 2.36,-3.32 0.96,-0.98 2.19,-1.77 3.57,-2.07l0.17 0.75c-2.43,0.64 -4.07,2.86 -5.17,5.12 -1.12,2.31 -1.82,4.83 -2.38,7.36 -1.1,5.08 -1.62,10.3 -1.9,15.52 -0.53,10.46 -0.31,20.97 0.32,31.44 0.55,9.57 1.39,19.13 2.5,28.66 -0.57,0.18 -1.14,0.37 -1.7,0.58l0 0z"/>
   <path class="fil8" d="M247.92 503.84c0,0 4.09,83.01 29.86,174.32l70.4 0 -100.26 -174.32 0 0z"/>
   <path class="fil9" d="M280.22 461.46c-17.69,-9.62 -22.54,-33.47 -9.62,-48.96 1.24,-1.49 2.62,-3 4.15,-4.53 19.74,-19.66 7.44,-39.33 4.68,-84.57 -2.76,-45.19 47.59,-57.53 47.69,-57.56 2.37,-0.58 6.97,-7.36 8.91,-9.04 22.72,-19.71 55.32,-18.25 80.23,-3.25 11.85,7.14 23.78,18.13 30.19,30.73 10.17,20 12.01,46.34 29.14,61.91 24.42,22.2 51.51,41.04 50.41,76.84 -0.38,12.72 -3.57,26.15 -11.32,36.35 -6.76,8.88 -17.05,14.85 -26.33,20.59 -15.1,9.34 -31.03,17.6 -47.88,23.15 -16.32,5.37 -32.82,10.2 -49.36,14.8 -1.56,0.44 -3.13,0.87 -4.69,1.3l-106.21 -57.78 0 -0z"/>
   <path class="fil10" d="M395.35 441.92c59.13,-20.3 91.25,45.88 135.41,175.02l42.49 11.47 -4.94 45.99 -15.5 3.23 -126.59 0.53 -30.87 -236.24 0 0z"/>
   <polygon class="fil1" points="899.16,693.91 -0,693.91 -0,662.92 899.16,662.92 "/>
   <polygon class="fil10" points="312.04,432.3 444.28,465.39 499.84,631.87 314.24,637.52 301.96,514.43 "/>
   <path class="fil11" d="M474.89 634.81c-5.73,0 -12.75,-1.79 -12.75,-1.79l0 0 19.72 -0.6c-0.88,1.82 -3.71,2.4 -6.97,2.4z"/>
   <path class="fil11" d="M462.14 633.02l-24.88 -2.5c1.88,-6.79 6.52,-11.94 15.56,-11.94 0.37,0 0.74,0.01 1.12,0.03l-100.02 -13.94c-3.9,-0.54 -7.38,-2.72 -9.55,-6 -1.44,-2.18 -3.13,-4.95 -3.98,-8.09l-23.68 -86.74c32.49,32.71 25.3,80.64 53.06,85.39 18.37,3.15 70.59,10.61 95.5,20.99 5.04,2.1 18.95,12.44 16.79,21.62 -0.05,0.21 -0.12,0.4 -0.21,0.57l-19.72 0.6 0 0.01 0 0z"/>
   <path class="fil6" d="M430.85 623.73c0.94,-1.49 20.84,-5.44 23.09,-5.12 7.4,1.01 11.44,6.8 13.22,11.24l-29.44 15.52 -6.87 -21.64 0 0z"/>
   <path class="fil6" d="M452.87 503.69l3.42 7.78c1.13,2.6 2.17,5.24 3.27,7.85 2.09,5.26 4.12,10.56 6.02,15.9 3.85,10.66 7.25,21.48 10.45,32.36 3.14,10.89 5.96,21.87 8.45,32.93 1.21,5.54 2.37,11.09 3.4,16.66 1.01,5.58 1.88,11.18 2.62,16.8l-0.73 0.11c-0.93,-5.58 -1.99,-11.13 -3.18,-16.66 -1.14,-5.54 -2.4,-11.05 -3.71,-16.54 -2.62,-10.99 -5.5,-21.93 -8.65,-32.78 -3.09,-10.87 -6.52,-21.65 -10.15,-32.35 -1.79,-5.36 -3.74,-10.67 -5.7,-15.97 -1.01,-2.64 -1.97,-5.3 -3.01,-7.93l-3.16 -7.87 0.67 -0.3 0 0z"/>
   <path class="fil12" d="M558.57 651.82c0,0 -5.56,6.58 -23.13,0.17 -8.27,0.96 -23.66,0.22 -52.94,-4.56 0,0 10.63,7.44 34.67,8.71 0,0 -1.03,7.07 -13.7,6.76 -15.24,-0.38 -17.01,-1.31 -30.9,-0.73 -2.84,0.12 -9.02,-0.02 -15.72,-0.22 -11.68,-0.38 -24.96,-1 -24.96,-1l-11.58 -20.69 23.1 -11.06c7.09,-2.78 10.63,-3.74 14.08,-4.23 14.92,-2.12 24.34,-3.8 35.03,-1.96 11.88,2.04 48.18,14.08 66.04,28.8l0 0z"/>
   <path class="fil5" d="M457.49 661.61l-0.65 0.36c-11.68,-0.38 -24.96,-1 -24.96,-1l-11.58 -20.69 23.1 -11.06c7.09,-2.78 10.63,-3.74 14.08,-4.23 -8.49,3.46 -15.45,12.54 0,36.63l0 0z"/>
   <path class="fil10" d="M366.55 441.69c-30.06,-6.16 -103.31,-11.28 -123.77,26.64 -16.85,31.22 25.39,135.77 43.68,172.54 7.53,15.13 29.4,22.62 37.9,22.68l120.77 -0.7c-8.12,-1.88 -18.54,-45.48 8.8,-44.25l-100.02 -13.94c-3.9,-0.54 -7.38,-2.72 -9.55,-6 -1.45,-2.18 -3.13,-4.95 -3.98,-8.09l-28.39 -103.99 54.55 -44.9 0 0z"/>
   <polygon class="fil4" points="633.76,663.55 515.94,663.47 515.94,652.36 634.45,652.36 "/>
   <polygon class="fil6" points="733.32,663.55 591.18,663.51 643.03,511.91 785.16,511.95 "/>
   <path class="fil4" d="M699.62 595.82c-4.36,6.96 -12.5,9.81 -18.71,6.76 -0.37,-0.17 -0.73,-0.36 -1.08,-0.59 -6.33,-3.95 -7.71,-13.13 -3.11,-20.49 4.61,-7.37 13.46,-10.13 19.79,-6.17 1.9,1.19 3.35,2.86 4.34,4.81 2.26,4.51 1.97,10.55 -1.24,15.68z"/>
   <path class="fil10" d="M699.62 595.82c-4.36,6.96 -15.06,12.01 -22.57,3.74 16.28,1.47 21.75,-9.19 21.45,-22.66 5.57,6.16 4.33,13.79 1.12,18.92l0 0z"/>
   <path class="fil9" d="M492.59 622.65c6.04,0.89 11.89,2.58 17.69,4.38 5.79,1.82 11.49,3.94 17.09,6.29 5.62,2.3 11.11,4.94 16.43,7.87 5.3,2.98 10.46,6.29 15.02,10.35l-0.49 0.59c-2.42,-1.79 -4.9,-3.47 -7.48,-5.01 -2.56,-1.58 -5.19,-3.03 -7.86,-4.41 -5.34,-2.77 -10.79,-5.33 -16.38,-7.58 -5.51,-2.43 -11.18,-4.49 -16.86,-6.52 -2.84,-1 -5.7,-1.94 -8.59,-2.82 -2.87,-0.9 -5.77,-1.73 -8.71,-2.37l0.13 -0.76 0 0z"/>
   <path class="fil9" d="M490.25 650.7l6.36 1.82c2.12,0.57 4.25,1.06 6.39,1.49 2.14,0.44 4.29,0.78 6.46,1.08 2.16,0.28 4.34,0.5 6.53,0.72l0.73 0.07 0.06 0.63c0.08,0.85 -0.01,1.58 -0.24,2.35 -0.23,0.75 -0.66,1.48 -1.27,2 -0.62,0.52 -1.34,0.85 -2.07,1.01 -0.36,0.09 -0.73,0.11 -1.08,0.15l-1.07 -0.03 0 -0.77 0.95 -0.14c0.3,-0.09 0.62,-0.14 0.89,-0.25 0.58,-0.21 1.07,-0.53 1.44,-0.93 0.37,-0.4 0.63,-0.9 0.75,-1.45 0.12,-0.53 0.13,-1.18 0.04,-1.66l0.78 0.7c-4.46,-0.08 -8.94,-0.62 -13.3,-1.63 -2.18,-0.5 -4.33,-1.15 -6.44,-1.89 -2.12,-0.73 -4.16,-1.62 -6.17,-2.55l0.27 -0.72 0 0z"/>
   <path class="fil9" d="M484.87 635.38c5.11,0.65 10.25,1.15 15.39,1.68 5.14,0.57 10.28,1.06 15.42,1.88 5.11,0.82 10.2,1.75 15.29,2.67 5.08,0.93 10.17,1.86 15.23,2.89l1.2 0.24 -0.51 1.12c-0.34,0.73 -0.66,1.82 -1.31,2.73 -0.27,0.49 -0.72,0.86 -1.09,1.27 -0.44,0.32 -0.87,0.68 -1.33,0.94 -1.87,1.09 -3.86,1.46 -5.81,1.84 -3.92,0.64 -7.83,0.62 -11.71,0.49 -1.94,-0.07 -3.88,-0.16 -5.81,-0.33 -1.93,-0.14 -3.86,-0.28 -5.78,-0.53 -3.85,-0.4 -7.67,-0.95 -11.49,-1.5l0.1 -0.77c3.85,0.32 7.67,0.75 11.51,0.97 1.92,0.15 3.84,0.26 5.76,0.35 1.92,0.13 3.84,0.16 5.75,0.18 3.83,0.02 7.67,-0.05 11.37,-0.66 1.81,-0.37 3.68,-0.76 5.16,-1.66 0.37,-0.21 0.68,-0.49 1.03,-0.73 0.25,-0.32 0.58,-0.56 0.77,-0.93 0.48,-0.67 0.7,-1.46 1.14,-2.49l0.69 1.36c-10.15,-1.92 -20.28,-3.96 -30.44,-5.72 -5.05,-0.92 -10.18,-1.54 -15.3,-2.23 -5.11,-0.71 -10.25,-1.36 -15.35,-2.3l0.12 -0.76 0 0z"/>
   <polygon class="fil6" points="-0,664.23 899.16,664.23 899.16,661.6 -0,661.6 "/>
   <path class="fil6" d="M351.76 481.09c4.37,2.97 9.23,5.14 14.31,6.34 5.08,1.17 10.37,1.48 15.49,0.59 5.12,-0.81 10.06,-2.78 14.21,-5.89 4.19,-3.06 7.51,-7.25 9.85,-11.97l0.71 0.3c-0.55,1.23 -1.11,2.46 -1.69,3.68 -0.66,1.18 -1.43,2.3 -2.16,3.46 -0.8,1.1 -1.76,2.08 -2.63,3.13 -0.94,0.98 -2.02,1.84 -3.03,2.76 -4.31,3.4 -9.54,5.58 -14.94,6.45 -5.41,0.83 -10.98,0.54 -16.22,-0.91 -5.25,-1.43 -10.19,-3.92 -14.36,-7.34l0.46 -0.62z"/>
   <path class="fil6" d="M317.06 503.74l6.6 22.41 6.49 22.44 6.42 22.46 3.19 11.24 1.6 5.62c0.55,1.87 1,3.79 1.74,5.42 1.45,3.39 4.38,5.9 7.69,7.63 3.35,1.72 7.07,2.78 10.82,3.6 3.77,0.81 7.59,1.36 11.46,1.86l11.58 1.57 23.14 3.2 23.12 3.33 -0.1 0.73 -23.2 -2.75 -23.19 -2.88 -11.59 -1.47c-3.85,-0.48 -7.75,-1.02 -11.6,-1.83 -3.84,-0.83 -7.69,-1.9 -11.29,-3.72 -3.55,-1.82 -6.93,-4.65 -8.54,-8.51 -0.24,-0.46 -0.4,-0.95 -0.56,-1.44 -0.16,-0.48 -0.34,-0.98 -0.46,-1.44l-0.78 -2.81 -1.57 -5.63 -3.14 -11.25 -6.25 -22.51 -6.18 -22.53 -6.08 -22.56 0.71 -0.2 0 0z"/>
   <path class="fil12" d="M392.17 394.67l5.92 50.98c1.76,15.18 -14.23,27.89 -30.44,23.69 -9.27,-2.41 -18.93,-8.82 -28.92,-18.46 -2.06,-1.98 -3.31,-4.55 -3.58,-7.28l-6.31 -61.44 63.34 12.52 0 0z"/>
   <path class="fil13" d="M392.98 401.61l3.22 27.76c-13.1,2.06 -31.57,-5.31 -50.3,-30.17l47.08 2.42 0 0z"/>
   <path class="fil12" d="M425.29 357.97c-0.76,9.25 -2.22,18.9 -4.81,27.58 -4.38,14.58 -12.03,26.35 -25.12,28.53 -38.56,6.41 -66.51,-31.93 -66.51,-31.93l-4.48 -52.16 23.27 -40.26 52.11 -1.51 25.41 30.06c0,0 1.84,18.75 0.13,39.7z"/>
   <path class="fil9" d="M323.11 349.81c20.7,-1.55 25.47,-19.04 26.88,-41.72 0,0 56.07,-13.89 75.98,25.97l15.09 1.64 -45.71 -60.68 -71.04 8.47 -13.9 46.12 12.7 20.2z"/>
   <path class="fil12" d="M334.06 343.01c-2.44,-2.68 -6.07,-4.05 -9.67,-3.61 -13.75,1.66 -16.14,19.87 -13,27.63 4.71,11.59 17.45,15.12 17.45,15.12l10.95 -11.58c0.87,-12.06 -0.5,-21.8 -5.73,-27.56z"/>
   <path class="fil14" d="M328.52 476.81l-0.02 0 -0.15 0c-0.4,-0 -0.81,-0.01 -1.23,-0.03 -0.92,-0.04 -1.84,-0.16 -2.76,-0.36l0 0 22.4 -18.44c0.39,0.31 0.77,0.61 1.16,0.91 -1.32,10.52 -6.71,17.92 -19.41,17.92l0 0z"/>
   <g>
    <path class="fil15" d="M266.73 447.21c2.83,-1.36 6,-2.6 9.56,-3.7 -3.32,1.07 -6.52,2.29 -9.56,3.7l0 0zm9.67 -3.73l54.18 -44.31 3.97 38.59c-0.3,-0.02 -0.59,-0.03 -0.89,-0.05l-21.61 -5.41 -0.66 5.37c-12.01,0.61 -24.13,2.35 -34.98,5.82z"/>
   </g>
   <path class="fil14" d="M333.66 437.71c-3.82,-0.2 -7.75,-0.31 -11.74,-0.31 -3.48,0 -7,0.08 -10.53,0.26l0.66 -5.37 21.61 5.41 0 0z"/>
   <path class="fil14" d="M324.36 476.41c-15.63,-3.5 -30.07,-30.01 -51.19,-30.01 -2.11,0 -4.28,0.27 -6.53,0.84 0.03,-0.01 0.06,-0.03 0.08,-0.04 3.04,-1.41 6.24,-2.63 9.56,-3.7 0.04,-0.01 0.07,-0.02 0.11,-0.03l0 0c10.86,-3.47 22.98,-5.2 34.98,-5.82 3.53,-0.18 7.05,-0.26 10.53,-0.26 3.99,0 7.92,0.11 11.74,0.3 0.3,0.02 0.59,0.03 0.89,0.05l0.6 5.84c0.28,2.74 1.53,5.3 3.58,7.28 2.7,2.6 5.38,4.98 8.04,7.1l-22.4 18.44 -0 0z"/>
   <path class="fil16" d="M347.92 458.89c-0.39,-0.3 -0.77,-0.6 -1.16,-0.91 -2.65,-2.12 -5.33,-4.49 -8.04,-7.1 -2.06,-1.98 -3.3,-4.55 -3.58,-7.28l-0.6 -5.84 -3.97 -38.59 3.71 -3.03c4.83,13.73 16.07,43.47 13.64,62.75l0 0z"/>
   <path class="fil9" d="M328.83 382.14c7.33,13.91 27.82,82.75 -7.09,78.77 -16.82,-1.92 -20.95,-22.18 -45.34,-17.44l52.43 -61.33 0 -0z"/>
   <path class="fil13" d="M330.04 355.62c0.05,-1.62 -0.46,-3.09 -1.25,-4.35 -0.82,-1.24 -1.95,-2.27 -3.23,-2.85 -1.28,-0.58 -2.67,-0.68 -3.98,-0.21 -1.33,0.47 -2.52,1.52 -3.68,2.73l-0.85 -0.51c0.67,-1.65 1.81,-3.3 3.62,-4.24 0.46,-0.23 0.91,-0.46 1.43,-0.54 0.51,-0.12 1.02,-0.23 1.54,-0.18l0.78 0.03 0.75 0.16c0.51,0.08 0.98,0.27 1.44,0.49 1.82,0.86 3.26,2.34 4.08,4.09 0.84,1.74 1.01,3.83 0.33,5.58l-0.96 -0.21 0 0z"/>
   <path class="fil13" d="M403.81 347.84c0.13,3.55 2.19,6.35 4.62,6.27 2.42,-0.08 4.29,-3.03 4.16,-6.57 -0.12,-3.55 -2.19,-6.35 -4.61,-6.27 -2.42,0.08 -4.29,3.03 -4.16,6.57z"/>
   <path class="fil13" d="M365.58 349.19c0.13,3.55 2.19,6.35 4.61,6.26 2.42,-0.08 4.29,-3.03 4.16,-6.57 -0.12,-3.54 -2.19,-6.35 -4.61,-6.26 -2.42,0.09 -4.29,3.03 -4.16,6.57z"/>
   <path class="fil13" d="M403.33 383.94c-1.67,2.1 -3.68,4.07 -6.3,5.37 -2.64,1.27 -5.88,1.44 -8.65,0.62 -2.81,-0.8 -5.2,-2.32 -7.34,-4.01 -2.17,-1.67 -4.02,-3.66 -5.7,-5.75l0.8 -0.82c2.18,1.51 4.23,3.12 6.4,4.48 2.14,1.37 4.35,2.64 6.65,3.3 2.3,0.68 4.62,0.65 6.88,-0.12 2.24,-0.83 4.35,-2.32 6.47,-3.88l0.8 0.82 0 0z"/>
   <path class="fil13" d="M416.76 336.89c-1.71,-1.18 -3.3,-2.3 -4.92,-3.02 -1.63,-0.7 -3.19,-1.06 -4.8,-0.88 -1.61,0.15 -3.27,0.72 -4.97,1.46 -1.72,0.75 -3.4,1.75 -5.33,2.61l-0.53 -0.55c1.05,-1.86 2.43,-3.51 4.19,-4.83 1.75,-1.31 3.92,-2.32 6.34,-2.51 2.43,-0.23 4.93,0.64 6.72,2.05 1.82,1.4 3.11,3.21 3.89,5.19l-0.6 0.47 0 0z"/>
   <path class="fil13" d="M378.45 338.24c-1.84,-1.31 -3.65,-2.31 -5.52,-2.9 -1.88,-0.57 -3.77,-0.8 -5.67,-0.58 -1.9,0.21 -3.8,0.75 -5.7,1.53 -1.91,0.79 -3.78,1.81 -5.86,2.81l-0.53 -0.55c1.19,-2.02 2.83,-3.76 4.81,-5.13 1.98,-1.37 4.38,-2.29 6.91,-2.52 2.52,-0.25 5.17,0.31 7.33,1.58 2.18,1.24 3.91,3.12 4.83,5.29l-0.6 0.47 0 0z"/>
   <path class="fil17" d="M355.43 387.23c-7.52,0 -13.74,-5.96 -14,-13.53 -0.27,-7.74 5.78,-14.23 13.52,-14.5 0.17,-0.01 0.33,-0.01 0.5,-0.01 7.52,0 13.74,5.96 14,13.53 0.27,7.74 -5.78,14.23 -13.52,14.5 -0.17,0.01 -0.33,0.01 -0.5,0.01z"/>
   <path class="fil17" d="M420.47 385.55c-5.92,-1.47 -10.39,-6.74 -10.62,-13.12 -0.28,-7.74 5.78,-14.23 13.51,-14.51 0.17,-0.01 0.34,-0.01 0.52,-0.01 0.47,0 0.94,0.02 1.4,0.06 -0.76,9.25 -2.22,18.9 -4.81,27.58l0 0z"/>
   <path class="fil17" d="M391.19 371.93c-1.24,0 -2.4,-0.86 -2.66,-2.19 -1.46,-7.59 -1.37,-15.94 -0.55,-24.66 0.03,-0.36 0.31,-0.55 0.59,-0.55 0.24,0 0.49,0.14 0.58,0.44 3.14,10.23 13.32,17.7 11.69,20.71 -1.15,2.11 -5.46,4.5 -8.48,5.98 -0.39,0.19 -0.79,0.27 -1.19,0.27l0 0z"/>
   <path class="fil13" d="M390.17 344.04c0.7,2.99 2.07,5.71 3.73,8.27 1.67,2.56 3.62,4.94 5.6,7.44 0.5,0.63 0.98,1.28 1.45,1.97 0.47,0.7 0.94,1.42 1.31,2.4 0.17,0.49 0.34,1.1 0.18,1.9 -0.22,0.9 -0.6,1.21 -0.89,1.63 -0.65,0.73 -1.34,1.27 -2.04,1.75 -2.81,1.88 -5.79,3.03 -8.87,3.98l-0.44 -1.06c1.35,-0.8 2.72,-1.55 4.03,-2.41 1.31,-0.82 2.62,-1.66 3.75,-2.58 0.56,-0.47 1.09,-0.95 1.47,-1.42 0.15,-0.22 0.33,-0.53 0.25,-0.41 0.01,0.02 -0.02,-0.17 -0.12,-0.42 -0.41,-1.05 -1.47,-2.34 -2.38,-3.55 -1.91,-2.48 -3.91,-5.06 -5.44,-7.95 -1.56,-2.86 -2.65,-6.11 -2.71,-9.41l1.14 -0.13 0 0z"/>
   <path class="fil13" d="M316.58 385.97c-0.89,1.96 -1.18,4.12 -1.05,6.26 0.15,2.14 0.71,4.25 1.51,6.26 1.7,4 3.95,7.9 5.94,11.94 2.02,4.01 3.8,8.29 4.61,12.88 0.39,2.3 0.51,4.65 0.33,6.99 -0.16,1.16 -0.27,2.33 -0.58,3.51 -0.33,1.15 -0.71,2.31 -1.3,3.38 -1.09,2.16 -2.75,4.09 -4.87,5.41 -2.1,1.35 -4.7,1.93 -7.18,1.68 -2.51,-0.32 -4.61,-1.23 -6.72,-2.07 -2.09,-0.87 -4.13,-1.78 -6.16,-2.69 -4.06,-1.79 -8.16,-3.53 -12.42,-4.32 -2.11,-0.39 -4.28,-0.52 -6.3,0.01 -1,0.28 -1.93,0.73 -2.77,1.35 -0.84,0.62 -1.51,1.44 -2.11,2.32l-0.85 -0.49c0.59,-1.01 1.28,-1.99 2.19,-2.77 0.92,-0.77 2,-1.36 3.13,-1.75 2.3,-0.73 4.71,-0.71 6.99,-0.4 4.58,0.7 8.84,2.36 13.01,4.03l6.18 2.57c2.04,0.81 4.12,1.62 6.07,1.83 1.97,0.16 3.96,-0.29 5.62,-1.38 1.67,-1.06 3.02,-2.67 3.97,-4.47 0.5,-0.89 0.83,-1.88 1.13,-2.86 0.27,-0.98 0.38,-2.05 0.54,-3.1 0.18,-2.12 0.09,-4.26 -0.25,-6.38 -0.71,-4.24 -2.36,-8.34 -4.2,-12.36 -1.83,-4.05 -3.98,-7.96 -5.62,-12.26 -0.74,-2.18 -1.24,-4.47 -1.28,-6.8 -0.05,-2.32 0.42,-4.7 1.54,-6.76l0.88 0.44 0 0z"/>
   <path class="fil13" d="M317.29 268.77c3.78,-1.7 7.73,-2.92 11.72,-3.97 3.98,-1.06 8.03,-1.85 12.11,-2.49 4.08,-0.61 8.19,-1.04 12.32,-1.16 2.07,-0.05 4.14,-0.05 6.21,0.06 2.07,0.13 4.14,0.37 6.18,0.8l-0.14 0.97c-2.03,-0.06 -4.04,-0.13 -6.06,-0.01 -2.02,0.05 -4.04,0.18 -6.06,0.38 -4.03,0.37 -8.06,0.86 -12.08,1.45 -4.02,0.59 -8.01,1.32 -12,2.09 -2,0.38 -3.98,0.83 -5.95,1.3 -1.99,0.43 -3.93,0.99 -5.9,1.52l-0.35 -0.92 0 0z"/>
   <path class="fil13" d="M349.77 307.65c1.68,-0.89 3.46,-1.43 5.24,-1.86 1.79,-0.42 3.59,-0.78 5.41,-1.02 3.63,-0.49 7.29,-0.69 10.95,-0.69 7.32,-0 14.65,1.02 21.75,2.94 7.07,1.98 13.92,5.1 19.8,9.6 2.92,2.27 5.62,4.84 7.89,7.75 2.24,2.93 4.16,6.11 5.6,9.47l-0.89 0.42c-3.42,-6.29 -8.11,-11.82 -13.92,-15.89 -2.88,-2.05 -5.94,-3.86 -9.16,-5.34 -3.22,-1.49 -6.6,-2.63 -10.01,-3.62 -6.84,-1.98 -13.97,-2.93 -21.11,-3.22 -3.57,-0.14 -7.16,-0.05 -10.72,0.26 -3.54,0.32 -7.17,0.77 -10.39,2.06l-0.45 -0.88 0 0z"/>
   <path class="fil13" d="M101.98 503.97l13.53 4.38c1.17,0.38 1.97,1.41 2.05,2.64 0.08,1.22 -0.58,2.35 -1.69,2.88l-14.77 7 0.02 0.2 20.67 4.12c0.77,0.15 1.28,0.9 1.13,1.68 -0.15,0.77 -0.91,1.28 -1.68,1.13l-20.67 -4.12c-1.28,-0.26 -2.21,-1.25 -2.37,-2.55 -0.16,-1.29 0.5,-2.49 1.68,-3.05l14.77 -7 -0.01 -0.2 -13.53 -4.38c-0.75,-0.24 -1.17,-1.05 -0.92,-1.81 0.24,-0.75 1.05,-1.16 1.81,-0.92l0 0z"/>
   <path class="fil13" d="M67.05 485.33l12.01 3.89c1.04,0.33 1.75,1.25 1.82,2.34 0.07,1.09 -0.52,2.09 -1.5,2.56l-13.12 6.23 0.02 0.17 18.35 3.66c0.69,0.14 1.14,0.81 1,1.5 -0.14,0.69 -0.81,1.14 -1.5,1l-18.35 -3.66c-1.14,-0.23 -1.96,-1.11 -2.1,-2.26 -0.14,-1.15 0.44,-2.22 1.49,-2.71l13.12 -6.22 -0.01 -0.17 -12.01 -3.89c-0.67,-0.22 -1.04,-0.94 -0.82,-1.6 0.22,-0.67 0.94,-1.03 1.6,-0.82l0 0z"/>
   <path class="fil13" d="M139.56 532.52l9.52 3.09c0.82,0.26 1.39,1 1.44,1.85 0.06,0.86 -0.41,1.66 -1.19,2.03l-10.4 4.93 0.02 0.14 14.55 2.9c0.54,0.11 0.9,0.64 0.79,1.18 -0.11,0.55 -0.64,0.9 -1.19,0.79l-14.55 -2.9c-0.9,-0.18 -1.56,-0.88 -1.67,-1.79 -0.11,-0.92 0.35,-1.76 1.18,-2.15l10.4 -4.93 -0.01 -0.14 -9.53 -3.09c-0.53,-0.17 -0.82,-0.74 -0.65,-1.27 0.17,-0.53 0.74,-0.82 1.27,-0.65l0 0z"/>
   <path class="fil4" d="M734.92 457.79l-42.27 0c-6.91,0 -12.57,-5.66 -12.57,-12.58l0 -38.06c0,-6.92 5.66,-12.57 12.57,-12.57l42.27 0c6.92,0 12.58,5.66 12.58,12.57l0 38.06c0,6.92 -5.66,12.58 -12.58,12.58z"/>
   <path class="fil8" d="M734.92 457.79l0 -0.99 -42.27 0c-3.18,0 -6.07,-1.3 -8.18,-3.4 -2.1,-2.11 -3.4,-5 -3.4,-8.18l0 -38.06c0,-3.18 1.3,-6.08 3.4,-8.18 2.11,-2.11 5,-3.41 8.18,-3.41l42.27 0c3.19,0 6.08,1.3 8.18,3.41 2.1,2.1 3.4,4.99 3.4,8.18l0 38.06c0,3.19 -1.3,6.08 -3.4,8.18 -2.11,2.1 -5,3.4 -8.18,3.4l0 0.99 0 0.98c7.47,-0.01 13.56,-6.09 13.56,-13.56l0 -38.06c-0.01,-7.46 -6.09,-13.56 -13.56,-13.56l-42.27 -0c-7.46,0 -13.55,6.09 -13.56,13.56l0 38.06c0.01,7.47 6.09,13.56 13.56,13.56l42.27 0 0 -0.98z"/>
   <polygon class="fil8" points="713.78,470.28 701.52,457.79 726.03,457.79 "/>
   <path class="fil8" d="M712.71 444.09c-0.65,0 -1.28,-0.28 -1.71,-0.79l-12.26 -14.41c-0.8,-0.94 -0.69,-2.35 0.25,-3.15 0.95,-0.81 2.36,-0.68 3.16,0.25l10.16 11.94 15.82 -28.51c0.6,-1.08 1.97,-1.47 3.05,-0.87 1.08,0.6 1.47,1.96 0.87,3.04l-17.39 31.34c-0.36,0.64 -1.01,1.07 -1.74,1.14 -0.07,0.01 -0.15,0.01 -0.22,0.01l0 0z"/>
   <path class="fil0" d="M88.53 596.02c-18.77,4.45 -39.59,10.61 -48.5,29.53 -8.41,17.88 0.34,35.24 17.24,43.69 11.43,5.73 55,15.36 36.91,36.51 -11.69,13.66 -31.99,9.44 -45.34,1.37 -6.95,-4.2 -13.29,6.68 -6.36,10.87 15.18,9.17 32.65,12.53 49.16,4.95 17.92,-8.23 24.97,-29.33 11.3,-44.76 -7.01,-7.91 -16.91,-11.64 -26.64,-14.98 -9.2,-3.17 -21.25,-6.71 -25.72,-16.41 -4.21,-9.13 1.31,-19.57 8.32,-25.58 9.07,-7.77 21.67,-10.38 32.97,-13.05 7.88,-1.87 4.55,-14.01 -3.35,-12.15l0 0z"/>
   <path class="fil0" d="M261.07 619.05c21.34,1.25 22.87,-26.55 22.87,-26.55 0,-0 -14.6,-7.41 -28.28,1.78l5.41 24.77 0 0z"/>
   <path class="fil13" d="M262.28 610.63c8.5,-0.13 12.68,-10.82 12.68,-10.82 0,0 -6.26,-3.83 -14.15,0.09l1.48 10.72 0 0z"/>
   <path class="fil0" d="M200.8 593.33c-14.8,-15.43 5.35,-34.63 5.35,-34.63 0,0 15.11,6.3 17,22.67l-22.35 11.97 0 0z"/>
   <path class="fil13" d="M206.06 586.87c-5.16,-6.25 0,-15.9 0,-15.9 0,0 6.66,2.17 8.7,10.33l-8.7 5.57z"/>
   <path class="fil0" d="M231.34 661.57c-0.72,1.68 -2.3,2.83 -4.12,3.1 -14.43,2.23 -17.96,-1.76 -17.96,-1.76 0,0 -11.48,6.39 -38.48,-1.22 -0.67,1.25 -2.03,2.26 -3.58,2.77 -4.13,1.35 -20.17,-0.04 -30.62,-1.14 -6.31,-0.67 -24.81,0.82 -24.81,0.82 -16.85,0 -36,-4.5 -43.4,-21.4 -9.38,-21.39 0.49,-47.04 16.39,-62.35 16.97,-16.37 39.61,-17.84 60.2,-7.12 49.94,26.02 53.72,17.53 66.53,6.75l8.64 65.59c2.83,0.99 5.31,2.34 7.11,4.23 1.22,1.28 2.16,2.48 2.84,3.6 2.24,3.6 2.03,6.31 1.25,8.13l0 0z"/>
   <path class="fil18" d="M204.5 643.96c-27.88,-8.8 -25.54,-40.05 -7.52,-50.64 -3.95,6.28 -6.25,13.93 -6.25,22.32 0,11.74 5.55,21.61 13.77,28.32l0 0z"/>
   <path class="fil0" d="M266.32 621.04c-4.06,14.29 -10.77,22.47 -17.65,27.02 -6.41,4.28 -12.93,5.39 -17.64,5.39 -4.24,0 -8.45,-0.67 -12.47,-1.95 -15.31,-4.82 -27.82,-18.24 -27.82,-35.86 0,-22.26 16.17,-39.32 36.52,-39.32 23.3,0 46.31,19.23 39.07,44.71l-0 0z"/>
   <path class="fil19" d="M231.03 653.45c-0.26,0 -0.51,0 -0.77,-0.01 0.26,0.01 0.51,0.01 0.77,0.01 4.71,0 11.24,-1.12 17.64,-5.39l0 0c-6.41,4.28 -12.93,5.39 -17.64,5.39z"/>
   <path class="fil18" d="M231.03 653.45c-0.26,0 -0.51,0 -0.77,-0.01 -0.05,-0 -0.11,-0 -0.17,-0 -0.68,-1.12 -1.62,-2.32 -2.84,-3.6 -1.79,-1.89 -4.28,-3.24 -7.11,-4.23 1.73,-0.35 3.25,-0.48 4.56,-0.48 3.41,0 5.31,0.87 5.31,0.87 0,0 4.09,-2.04 8.91,-2.04 3.26,0 6.85,0.93 9.72,4.06l0.03 0.03c-6.41,4.28 -12.93,5.39 -17.64,5.39l0 0z"/>
   <path class="fil0" d="M226.94 654.43c-2.03,2.92 -1.67,6.98 1.16,9.14 0.65,0.5 1.35,0.83 2.03,0.83l20.07 0c0.96,0 1.47,-1.03 1.73,-2.36 0.78,-4.02 -0.9,-8.09 -4.04,-10.72 -6.47,-5.44 -15.1,-5.31 -20.96,3.12l0 0z"/>
   <path class="fil13" d="M190.72 643.65c4.07,-0.18 8.12,-0.01 12.17,0.35 4.05,0.36 8.08,1.03 12.06,2.01 1.99,0.49 3.95,1.13 5.86,1.9 1.91,0.78 3.8,1.67 5.52,2.89 1.71,1.21 3.29,2.72 4.35,4.6 1.04,1.9 1.39,4.15 1.02,6.2l-0.73 -0.08c0.07,-1.95 -0.36,-3.88 -1.43,-5.45 -1.02,-1.6 -2.49,-2.88 -4.13,-3.91 -3.29,-2.07 -7.08,-3.37 -10.93,-4.35 -3.84,-1.05 -7.8,-1.66 -11.77,-2.23 -3.97,-0.54 -7.98,-0.93 -11.99,-1.2l0 -0.74 0 0z"/>
   <path class="fil13" d="M123.73 604.02c4.02,0.65 8.01,2.06 11.36,4.6 1.62,1.3 3.12,2.85 4.15,4.7 1.06,1.82 1.82,3.82 2.24,5.87 0.4,2.06 0.55,4.15 0.48,6.22 -0.1,2.07 -0.38,4.12 -0.77,6.14 -0.83,4.04 -2.12,7.94 -3.72,11.7 -0.79,1.89 -1.69,3.73 -2.66,5.54l-0.37 0.67 -0.2 0.35 -0.01 0.02c0.09,0.3 -0.84,-2.49 -0.44,-1.31l0.04 0.02 0.09 0.03 0.17 0.07 1.39 0.55c0.93,0.36 1.87,0.68 2.82,1 3.79,1.25 7.69,2.14 11.63,2.76 3.93,0.56 8.05,1 12.01,1.99 1.98,0.5 3.95,1.09 5.84,1.98 0.94,0.43 1.86,0.98 2.66,1.74 0.38,0.39 0.76,0.85 0.91,1.45 0.21,0.59 0.02,1.24 -0.22,1.76l-0.65 -0.35c0.4,-0.79 0.03,-1.6 -0.67,-2.19 -0.7,-0.6 -1.55,-1.08 -2.46,-1.44 -1.81,-0.76 -3.75,-1.25 -5.7,-1.66 -3.92,-0.87 -7.86,-1.18 -11.94,-1.65 -4.05,-0.52 -8.05,-1.45 -11.95,-2.68 -0.97,-0.32 -1.94,-0.64 -2.9,-1l-1.43 -0.55 -0.18 -0.07 -0.09 -0.04 -0.05 -0.02c0.4,1.17 -0.57,-1.61 -0.46,-1.33l0.01 -0.02 0.18 -0.32 0.35 -0.65c0.93,-1.75 1.77,-3.57 2.57,-5.39 1.59,-3.65 2.87,-7.45 3.71,-11.32 0.4,-1.94 0.68,-3.9 0.79,-5.86 0.07,-1.96 0.01,-3.93 -0.32,-5.85 -0.68,-3.82 -2.59,-7.41 -5.63,-9.87 -3.01,-2.5 -6.8,-4 -10.69,-4.87l0.14 -0.73 0 0z"/>
   <path class="fil13" d="M238.03 609.43c1.41,2.59 3.31,4.9 5.85,5.7 1.26,0.4 2.63,0.5 4.05,0.34 0.71,-0.07 1.41,-0.26 2.14,-0.36 0.71,-0.21 1.43,-0.42 2.18,-0.59l0.36 0.74c-0.66,0.43 -1.35,0.82 -2.06,1.22 -0.75,0.27 -1.5,0.63 -2.3,0.8 -1.6,0.41 -3.37,0.4 -5.04,-0.12 -1.67,-0.53 -3.13,-1.64 -4.11,-2.99 -0.99,-1.36 -1.65,-2.88 -1.86,-4.52l0.79 -0.21 0 0z"/>
   <path class="fil13" d="M215.13 599.55c1.2,2.69 2.92,5.15 5.39,6.14 1.22,0.49 2.58,0.7 4.01,0.65 0.71,-0.01 1.43,-0.15 2.16,-0.19 0.72,-0.15 1.45,-0.31 2.22,-0.42l0.3 0.76c-0.69,0.38 -1.41,0.71 -2.14,1.05 -0.77,0.22 -1.54,0.51 -2.36,0.62 -1.63,0.29 -3.39,0.13 -5.02,-0.51 -1.63,-0.65 -2.99,-1.88 -3.87,-3.3 -0.89,-1.43 -1.42,-3 -1.5,-4.65l0.8 -0.15 0 0z"/>
   <polygon class="fil20" points="701.38,291.84 723.61,291.84 705.85,176.9 683.62,176.9 "/>
   <polygon class="fil21" points="723.63,291.84 745.86,291.84 728.1,176.9 705.87,176.9 "/>
   <polygon class="fil20" points="836.26,291.82 754.22,291.82 754.22,239.04 836.26,239.04 "/>
   <polygon class="fil4" points="812.59,265.43 777.89,265.43 777.89,256.19 812.59,256.19 "/>
   <polygon class="fil21" points="683.62,291.82 645.01,291.82 645.01,142.17 683.62,142.17 "/>
   <polygon class="fil20" points="855.28,308.44 624.23,308.44 624.23,291.82 855.28,291.82 "/>
   <path class="fil4" d="M526.81 75.59c0,41.02 -33.25,74.28 -74.27,74.28 -41.02,0 -74.28,-33.25 -74.28,-74.28 0,-41.02 33.25,-74.28 74.28,-74.28 41.02,0 74.27,33.26 74.27,74.28z"/>
   <path class="fil10" d="M526.81 75.59l-1.32 0c0,20.15 -8.16,38.38 -21.36,51.59 -13.21,13.2 -31.44,21.37 -51.59,21.37 -20.15,-0 -38.38,-8.17 -51.59,-21.37 -13.2,-13.21 -21.37,-31.44 -21.37,-51.59 0,-20.15 8.17,-38.38 21.37,-51.59 13.21,-13.21 31.44,-21.37 51.59,-21.37 20.15,0 38.38,8.16 51.59,21.37 13.2,13.21 21.36,31.44 21.36,51.59l1.32 0 1.32 0c0,-41.75 -33.84,-75.59 -75.59,-75.59 -41.75,0 -75.59,33.84 -75.59,75.59 0,41.75 33.84,75.59 75.59,75.59 41.75,0 75.59,-33.84 75.59,-75.59l-1.32 0z"/>
   <polygon class="fil6" points="481.91,91.01 450.16,75.92 484.84,45.38 486.59,47.35 454.9,75.26 483.04,88.64 "/>
   <path class="fil21" d="M216.48 213.71l-115.71 0c-8.97,0 -16.24,-7.27 -16.24,-16.24l0 -65.06c0,-8.97 7.27,-16.24 16.24,-16.24l115.71 -0c8.97,0 16.24,7.27 16.24,16.24l0 65.06c0,8.97 -7.27,16.24 -16.24,16.24l0 0z"/>
   <polygon class="fil20" points="213.97,149.87 103.27,149.87 103.27,140.65 213.97,140.65 "/>
   <polygon class="fil22" points="213.97,169.55 103.27,169.55 103.27,160.33 213.97,160.33 "/>
   <polygon class="fil22" points="213.97,189.23 103.27,189.23 103.27,180.01 213.97,180.01 "/>
   <polygon class="fil2" points="121.98,312.41 100.94,295.95 143.02,295.95 "/>
   <path class="fil2" d="M148.69 295.97l-115.71 0c-8.97,0 -16.24,-7.27 -16.24,-16.24l0 -65.06c0,-8.97 7.27,-16.24 16.24,-16.24l115.71 0c8.97,0 16.24,7.27 16.24,16.24l0 65.06c0,8.97 -7.27,16.24 -16.24,16.24l0 0z"/>
   <polygon class="fil23" points="62.43,271.82 48.08,271.82 48.08,254.09 62.43,254.09 "/>
   <polygon class="fil23" points="85.46,271.82 71.12,271.82 71.12,234.35 85.46,234.35 "/>
   <polygon class="fil23" points="109.52,271.82 95.18,271.82 95.18,242.86 109.52,242.86 "/>
   <polygon class="fil23" points="133.58,271.82 119.24,271.82 119.24,222.58 133.58,222.58 "/>
  </g>
 </g>
</svg>
