<svg id="eLwzTOSRXGk1" xmlns="http://www.w3.org/2000/svg" xmlns:xlink="http://www.w3.org/1999/xlink" viewBox="-71 0 512 512.00101" shape-rendering="geometricPrecision" text-rendering="geometricPrecision">
    <style>
        <![CDATA[#eLwzTOSRXGk18_ts {animation: eLwzTOSRXGk18_ts__ts 6000ms linear infinite normal forwards}
        @keyframes eLwzTOSRXGk18_ts__ts { 0% {transform: translate(185.496094px,220.648438px) scale(1,0.694914)} 9.833333% {transform: translate(185.496094px,220.648438px) scale(1,0.694914)} 11.666667% {transform: translate(185.496094px,220.648438px) scale(1,0.349347)} 13.333333% {transform: translate(185.496094px,220.648438px) scale(1,0.694915)} 51.5% {transform: translate(185.496094px,220.648438px) scale(1,0.694914)} 53.333333% {transform: translate(185.496094px,220.648438px) scale(1,0.349347)} 55% {transform: translate(185.496094px,220.648438px) scale(1,0.694915)} 58.333333% {transform: translate(185.496094px,220.648438px) scale(1,0.694914)} 60.166667% {transform: translate(185.496094px,220.648438px) scale(1,0.349347)} 61.833333% {transform: translate(185.496094px,220.648438px) scale(1,0.694915)} 100% {transform: translate(185.496094px,220.648438px) scale(1,0.694915)}} #eLwzTOSRXGk23 {animation: eLwzTOSRXGk23_c_o 6000ms linear infinite normal forwards}
        @keyframes eLwzTOSRXGk23_c_o { 0% {opacity: 0} 13.333333% {opacity: 0} 16.666667% {opacity: 1} 71.666667% {opacity: 1} 83.333333% {opacity: 0} 100% {opacity: 0}} #eLwzTOSRXGk24 {animation: eLwzTOSRXGk24_c_o 6000ms linear infinite normal forwards}
        @keyframes eLwzTOSRXGk24_c_o { 0% {opacity: 0} 13.333333% {opacity: 0} 16.666667% {opacity: 1} 71.666667% {opacity: 1} 83.333333% {opacity: 0} 100% {opacity: 0}}]]>
    </style>
    <path d="M173.28125,263.289062h-108.441406c0,35.070313-17.546875,79.710938-34.410156,96.574219c0,0,12.601562,17.371094,61.359374,17.371094h81.492188Zm0,0" fill="#f2a755" />
    <path d="M306.152344,263.289062h-120.664063v113.945313h93.714844c48.753906,0,61.359375-17.371094,61.359375-17.371094C323.695312,343,306.152344,298.359375,306.152344,263.289062Zm0,0" fill="#f4d553" />
    <path d="M306.144531,453.242188v51.152343h-241.3125v-51.152343c0-66.632813,54.019531-120.660157,120.652344-120.660157c9.429687,0,18.605469,1.089844,27.414063,3.128907c22.316406,5.1875,42.25,16.566406,57.90625,32.210937c21.832031,21.839844,35.339843,52.003906,35.339843,85.320313Zm0,0" fill="#31ad7a" />
    <path d="M306.144531,453.242188v51.152343h-186.484375v-51.152343c0-57.207032,39.8125-105.121094,93.238282-117.53125c22.316406,5.1875,42.25,16.566406,57.90625,32.210937c21.832031,21.839844,35.339843,52.003906,35.339843,85.320313Zm0,0" fill="#4ccc9b" />
    <path d="M116.09375,354.511719c1.980469,36.621093,32.285156,65.699219,69.394531,65.699219c4.515625,0,8.933594-.4375,13.207031-1.257813c30.863282-5.929687,54.460938-32.277344,56.1875-64.441406" fill="#e8b182" />
    <path d="M185.496094,43.410156c66.636718,0,120.65625,54.019532,120.65625,120.65625v88.761719c0,58.800781-42.070313,107.773437-97.742188,118.46875-6.375,1.230469-12.921875,1.960937-19.609375,2.144531h-.164062c-1.152344.03125-2.304688.042969-3.472657.039063-66.507812-.125-120.324218-54.148438-120.324218-120.652344v-88.761719c0-66.636718,54.019531-120.65625,120.65625-120.65625Zm0,0" fill="#ffd0a6" />
    <path d="M206.265625,371.6875c-5.691406.996094-11.527344,1.59375-17.464844,1.757812h-.164062c-1.15625.027344-2.304688.039063-3.472657.039063-66.511718-.132813-120.324218-54.148437-120.324218-120.652344v-88.769531c0-66.632812,54.015625-120.652344,120.660156-120.652344c7.105469,0,14.058594.609375,20.828125,1.796875-56.71875,9.867188-99.824219,59.324219-99.824219,118.855469v88.769531c0,59.488281,43.066406,108.988281,99.761719,118.855469Zm0,0" fill="#e8b182" />
    <path d="M306.148438,164.0625v30.023438c-128.03125,0-162.835938-70.523438-162.835938-70.523438-13.09375,29.558594-49.398438,49.402344-78.480469,49.402344v-8.902344c0-66.632812,54.019531-120.652344,120.664063-120.652344c66.632812,0,120.652344,54.019532,120.652344,120.652344Zm0,0" fill="#f4d553" />
    <path d="M206.332031,45.207031c-.023437-.003906-.050781-.007812-.074219-.011719-1.5625-.273437-3.136718-.511718-4.722656-.722656-.148437-.019531-.292968-.042968-.441406-.0625-1.492188-.191406-2.992188-.347656-4.5-.488281-.332031-.03125-.664062-.058594-1-.085937-1.476562-.125-2.960938-.222657-4.457031-.289063-.289063-.015625-.578125-.023437-.867188-.035156-1.578125-.058594-3.164062-.101563-4.757812-.101563-.003907,0-.007813,0-.011719,0-66.644531,0-120.660156,54.019532-120.660156,120.652344v8.902344c13.359375,0,28.242187-4.199219,41.699218-11.59375c1.277344-58.324219,43.929688-106.445313,99.792969-116.164063Zm0,0" transform="translate(.000001 0)" fill="#f2a755" />
    <path d="M36.226562,291.902344c15.800782,0,28.613282-12.808594,28.613282-28.613282v-69.601562c0-15.804688-12.8125-28.613281-28.613282-28.613281-15.804687,0-28.613281,12.808593-28.613281,28.613281v69.601562c0,15.804688,12.8125,28.613282,28.613281,28.613282Zm0,0" transform="translate(.000001 0)" fill="#2e5968" />
    <path d="M334.765625,291.902344c15.800781,0,28.609375-12.808594,28.609375-28.613282v-69.601562c0-15.804688-12.808594-28.613281-28.609375-28.613281-15.804687,0-28.613281,12.808593-28.613281,28.613281v69.601562c0,15.804688,12.808594,28.613282,28.613281,28.613282Zm0,0" fill="#2e5968" />
    <g>
        <path d="M344.863281,290.066406c-3.136719,1.1875-6.546875,1.835938-10.097656,1.835938-15.804687,0-28.613281-12.808594-28.613281-28.609375v-69.597657c0-7.898437,3.207031-15.054687,8.382812-20.230468c5.175782-5.1875,12.320313-8.382813,20.230469-8.382813c3.550781,0,6.960937.648438,10.097656,1.835938-3.847656,1.441406-7.289062,3.695312-10.140625,6.546875-5.1875,5.175781-8.382812,12.332031-8.382812,20.230468v69.597657c0,12.25,7.695312,22.703125,18.523437,26.773437Zm0,0" transform="translate(.000001 0.000001)" fill="#1a414c" />
        <path d="M46.324219,290.066406c-3.136719,1.1875-6.546875,1.835938-10.097657,1.835938-15.804687,0-28.613281-12.808594-28.613281-28.609375v-69.597657c0-7.898437,3.207031-15.054687,8.382813-20.230468c5.175781-5.1875,12.324218-8.382813,20.230468-8.382813c3.550782,0,6.960938.648438,10.097657,1.835938-3.847657,1.441406-7.289063,3.695312-10.140625,6.546875C31,178.640625,27.800781,185.796875,27.800781,193.695312v69.597657c0,12.25,7.695313,22.703125,18.523438,26.773437Zm0,0" transform="translate(0 0.000001)" fill="#1a414c" />
        <path d="M232.800781,331.203125c0,7.609375-6.167969,13.78125-13.78125,13.78125-7.609375,0-13.78125-6.171875-13.78125-13.78125c0-7.613281,6.171875-13.78125,13.78125-13.78125c7.613281,0,13.78125,6.167969,13.78125,13.78125Zm0,0" fill="#1a414c" />
    </g>
    <path d="M228.378906,275.632812c-2.972656-2.972656-7.792968-2.972656-10.765625,0-17.710937,17.714844-46.535156,17.714844-64.25,0-2.972656-2.972656-7.792969-2.972656-10.765625,0s-2.972656,7.792969,0,10.765626c11.828125,11.824218,27.359375,17.738281,42.890625,17.738281c15.535157,0,31.066407-5.910157,42.890625-17.738281c2.972656-2.972657,2.972656-7.792969,0-10.765626Zm0,0" />
    <g id="eLwzTOSRXGk18_ts" transform="translate(185.496094,220.648438) scale(1,0.694914)">
        <g transform="translate(-185.496094,-220.648437)">
            <path d="M140.542969,205.820312c0-4.203124-3.40625-7.613281-7.613281-7.613281-4.203126,0-7.609376,3.410157-7.609376,7.613281v29.65625c0,4.203126,3.40625,7.613282,7.609376,7.613282c4.207031,0,7.613281-3.410156,7.613281-7.613282Zm0,0" transform="translate(0 0.000001)" />
            <path d="M238.058594,243.089844c4.203125,0,7.613281-3.410156,7.613281-7.613282v-29.65625c0-4.203124-3.410156-7.613281-7.613281-7.613281s-7.613282,3.410157-7.613282,7.613281v29.65625c0,4.203126,3.410157,7.613282,7.613282,7.613282Zm0,0" transform="translate(0 0.000001)" />
        </g>
    </g>
    <path d="M342.378906,158.273438v-1.390626C342.378906,70.375,272,0,185.496094,0C98.988281,0,28.613281,70.375,28.613281,156.882812v1.390626C12.28125,161.78125,0,176.324219,0,193.6875v69.601562c0,19.976563,16.25,36.226563,36.226562,36.226563c6.074219,0,11.796876-1.511719,16.832032-4.164063-5.976563,24.832032-17.425782,48.546876-28.011719,59.128907-2.644531,2.648437-2.976563,6.824219-.777344,9.855469c1.367188,1.886718,13.503907,16.929687,53.054688,19.96875-12.941407,20.300781-20.09375,44.117187-20.09375,68.9375v51.144531c0,4.203125,3.40625,7.613281,7.609375,7.613281h162.960937c4.203125,0,7.609375-3.410156,7.609375-7.613281s-3.40625-7.613281-7.609375-7.613281h-155.347656v-43.53125c0-32.605469,13.996094-63.253907,38.042969-84.582032c8.117187,34.089844,38.75,59.164063,74.992187,59.164063c4.90625,0,9.832031-.46875,14.640625-1.398438c30.1875-5.796875,53.46875-28.679687,60.363282-57.75c1.6875,1.496094,3.332031,3.035157,4.925781,4.628907c21.351562,21.363281,33.113281,49.753906,33.113281,79.9375v43.535156h-40.28125c-4.203125,0-7.609375,3.40625-7.609375,7.609375c0,4.207031,3.40625,7.613281,7.609375,7.613281h47.894531c4.203125,0,7.613281-3.40625,7.613281-7.613281v-51.144531c0-24.800782-7-48.527344-20.058593-68.9375c39.527343-3.042969,51.65625-18.082032,53.023437-19.96875c2.199219-3.027344,1.867188-7.207032-.777344-9.851563-4.488281-4.488281-9.242187-11.503906-13.746093-20.28125-1.917969-3.738281-6.507813-5.214844-10.246094-3.296875-3.742187,1.917969-5.21875,6.507812-3.300781,10.25c3.535156,6.886719,7.296875,12.929688,11.097656,17.851562-6.503906,4.085938-20.507812,10.082032-47.019531,10.578126-2.085938-2.414063-4.265625-4.765626-6.542969-7.046876-3.359375-3.355468-6.914062-6.527343-10.628906-9.496093c5.503906-4.40625,10.628906-9.25,15.320312-14.476563c43.777344-6.847656,56.417969-28.523437,60.042969-39.582031c17.050781-2.933594,30.070313-17.816406,30.070313-35.691406v-69.605469c-.003907-17.363281-12.285157-31.90625-28.613282-35.414062ZM185.496094,15.226562c78.109375,0,141.65625,63.542969,141.65625,141.65625v1.390626c-4.902344,1.050781-9.4375,3.105468-13.386719,5.925781v-.132813c0-70.730468-57.542969-128.269531-128.269531-128.269531-28.839844,0-56.078125,9.347656-78.777344,27.03125-3.3125,2.585937-3.90625,7.367187-1.324219,10.683594s7.367188,3.910156,10.683594,1.328125c19.996094-15.582032,44.003906-23.820313,69.417969-23.820313c62.332031,0,113.046875,50.710938,113.046875,113.046875v22.304688C239.511719,184.992188,202.707031,167.777344,182,153.230469c-23.253906-16.339844-31.785156-32.902344-31.855469-33.039063-1.304687-2.648437-4.019531-4.285156-6.980469-4.242187-2.953124.0625-5.605468,1.828125-6.804687,4.527343-11.066406,24.976563-40.101563,41.371094-63.90625,44.367188v-.777344c0-24.253906,7.566406-47.375,21.878906-66.855468c2.492188-3.390626,1.761719-8.152344-1.628906-10.640626-3.386719-2.492187-8.152344-1.761718-10.640625,1.625-16.246094,22.117188-24.832031,48.351563-24.832031,75.871094v.132813c-3.953125-2.820313-8.484375-4.871094-13.390625-5.925781v-1.390626c-.003906-78.113281,63.546875-141.65625,141.65625-141.65625ZM36.226562,284.289062c-11.582031,0-21-9.417968-21-21v-69.601562c0-11.582031,9.417969-21,21-21c11.578126,0,21,9.417969,21,21v69.601562c0,11.582032-9.421874,21-21,21Zm52.035157,85.292969c-24.652344-.46875-39.667969-5.832031-47.078125-10.476562C51.875,345.339844,61.363281,323.828125,67.011719,301.9375C75.375,322.039062,88.710938,339.574219,105.46875,353c-6.289062,5.023438-12.039062,10.578125-17.207031,16.582031Zm108.992187,41.894531c-3.867187.742188-7.824218,1.121094-11.765625,1.121094-28.703125,0-53.03125-19.585937-59.925781-46.382812c17.804688,9.453125,38.082031,14.835937,59.585938,14.878906h.308593c1.101563,0,2.195313-.011719,3.289063-.042969h.054687c.066407,0,.136719,0,.207031-.003906c6.976563-.191406,13.992188-.957031,20.839844-2.273437c12.667969-2.4375,24.601563-6.707032,35.554688-12.5-5.863282,22.785156-24.320313,40.628906-48.148438,45.203124Zm9.714844-47.652343c-6.007812,1.15625-12.15625,1.832031-18.273438,2.003906h-.058593c-.074219,0-.148438,0-.222657.003906-1.074218.03125-2.152343.035157-3.238281.035157C123.019531,365.75,72.449219,315.042969,72.449219,252.828125v-72.660156c25.277343-2.601563,55.074219-17.722657,71.441406-42.011719c5.601563,7.234375,14.707031,17.082031,28.410156,26.859375c22.558594,16.101563,62.542969,35.164063,126.238281,36.582031v51.230469c0,26.816406-9.464843,51.800781-25.460937,71.429687-9.398437,1.109376-20.484375,1.527344-33.539063.925782-2.609374-8.871094-10.8125-15.375-20.519531-15.375-11.796875,0-21.394531,9.597656-21.394531,21.394531s9.597656,21.394531,21.394531,21.394531c8.511719,0,15.859375-5.011718,19.300781-12.226562c4.460938.214844,8.746094.324218,12.835938.324218c1.886719,0,3.71875-.03125,5.527344-.070312-14.058594,11.425781-30.972656,19.597656-49.714844,23.199219Zm18.191406-32.058594c-.003906.050781-.011718.097656-.015625.144531v.011719c-.359375,3.066406-2.964843,5.449219-6.125,5.449219-3.402343,0-6.167969-2.765625-6.167969-6.167969s2.769532-6.167969,6.167969-6.167969c3.402344,0,6.171875,2.765625,6.171875,6.167969c0,.191406-.011718.378906-.03125.5625Zm89.691406-22.058594c-4.445312,3.480469-10.839843,7.121094-19.945312,10.023438c5.933594-9.695313,10.605469-20.207031,13.816406-31.296875c4.367188,4.519531,9.890625,7.90625,16.089844,9.683594-1.746094,3.34375-4.761719,7.515624-9.960938,11.589843Zm40.914063-46.417969c0,11.582032-9.421875,21-21,21-11.582031,0-21-9.417968-21-21v-69.601562c0-11.582031,9.421875-21,21-21s21,9.417969,21,21Zm0,0" />
    <g>
        <path id="eLwzTOSRXGk23" d="M95.99244,-73.66742C51.699736,0,133.8715,-40.003604,133.8715,10.17955s-54.191047,80.685089-133.8715,80.685089-144.274223-40.681485-144.274223-90.864639s118.349607-15.826177,241.149139-73.667419l-.882476-.000001Z" transform="matrix(.810041 0 0 0.810678 69.053161 370.263672)" opacity="0" fill="#d2dbed" stroke-width="0" />
    </g>
    <text id="eLwzTOSRXGk24" dx="0" dy="0" font-size="25.600025" font-weight="400" transform="matrix(1.8 0 0 1.8 10.213316 406.852521)" opacity="0" stroke-width="0">
        <tspan y="0" font-weight="400" stroke-width="0"><![CDATA[Hello]]></tspan>
    </text>
</svg>